<svg version="1.1" id="Layer_1" xmlns="http://www.w3.org/2000/svg" xmlns:xlink="http://www.w3.org/1999/xlink" x="0px" y="0px"
	 width="100%" viewBox="0 0 1080 470" enable-background="new 0 0 1080 470" xml:space="preserve">
<path fill="#1482C8" opacity="1.000000" stroke="none" 
	d="
M1080.657593,188.663376 
	C1081.000000,213.687561 1081.000000,238.375122 1081.000000,263.531342 
	C1079.286499,266.306305 1076.767456,266.391266 1074.242554,266.437714 
	C1057.263916,266.749939 1040.282837,267.226990 1023.315247,267.702637 
	C1002.999329,268.272247 982.678101,267.924286 962.381897,268.612885 
	C905.752869,270.534058 849.099487,269.996826 792.488831,269.163879 
	C735.681274,268.327972 678.884705,268.545410 622.090698,268.752655 
	C598.174500,268.839874 574.213684,270.558594 550.302368,272.250671 
	C532.377258,273.519135 514.418335,274.421356 496.486389,275.616089 
	C478.222168,276.832886 459.944275,277.867065 441.691345,279.274292 
	C433.895721,279.875336 426.049164,279.995270 418.249603,280.211273 
	C405.270599,280.570770 392.322479,282.044250 379.318481,281.489349 
	C372.141052,281.183105 364.981567,282.647278 357.880432,282.340515 
	C331.739594,281.211212 305.582245,282.064484 279.453705,281.321686 
	C253.995468,280.598022 228.513565,280.375000 203.081497,279.314484 
	C138.807587,276.634155 74.518906,277.874084 10.236979,277.444427 
	C7.324947,277.424988 4.163713,278.103729 1.349725,275.344055 
	C1.000000,250.645767 1.000000,226.291550 1.000000,201.468658 
	C2.225426,199.484528 3.804994,198.664536 5.760935,198.674454 
	C11.105243,198.701584 16.389057,197.461777 21.702690,197.594742 
	C42.038521,198.103577 62.344063,196.895493 82.644432,196.308105 
	C104.422363,195.677948 126.207047,194.525284 147.957870,192.838150 
	C164.382919,191.564148 180.842682,190.616959 197.283585,189.481400 
	C212.729294,188.414566 228.161179,187.147522 243.596939,185.939026 
	C255.047562,185.042526 266.516907,184.406815 277.970490,183.540253 
	C299.049438,181.945450 320.162231,180.835403 341.271179,179.798096 
	C353.568451,179.193817 365.899475,178.742081 378.209686,178.610107 
	C407.038239,178.301041 435.885529,177.972580 464.699951,178.681702 
	C487.817474,179.250610 510.949005,179.942490 534.059021,181.213943 
	C550.009399,182.091461 565.983826,182.778717 581.938232,183.632751 
	C599.219238,184.557770 616.485840,185.869766 633.754211,187.080917 
	C647.037354,188.012543 660.347534,188.572235 673.630127,189.530045 
	C692.888306,190.918762 712.177734,191.799149 731.435547,193.187714 
	C738.242859,193.678543 745.077332,194.146027 751.875854,194.310501 
	C764.528259,194.616577 777.185669,195.157547 789.810791,195.714310 
	C826.132141,197.316132 862.454102,196.557053 898.760864,196.290680 
	C920.367737,196.132156 942.013977,195.328339 963.621521,193.824020 
	C978.054504,192.819183 992.546387,192.358353 1007.001282,191.483002 
	C1024.281494,190.436584 1041.554810,189.258896 1058.812134,187.874817 
	C1064.289917,187.435486 1069.793579,187.449539 1075.260132,186.775223 
	C1077.059204,186.553284 1078.959595,186.744339 1080.657593,188.663376 
z"/>
<path fill="#00001E" opacity="1.000000" stroke="none" 
	d="
M1080.660645,413.665710 
	C1081.000000,431.993500 1080.946899,449.987366 1081.062378,467.980133 
	C1081.078125,470.430756 1080.575195,471.502136 1078.018188,471.018219 
	C1077.374756,470.896484 1076.688721,471.000000 1076.022339,471.000000 
	C719.317566,471.000000 362.612823,470.988617 5.908103,471.129395 
	C1.435349,471.131134 0.865914,469.906433 0.900119,465.910797 
	C1.102631,442.254425 1.000000,418.595428 1.000000,394.468658 
	C3.526475,390.898102 7.294383,391.086395 10.651537,390.736359 
	C29.196306,388.802704 47.781277,387.267273 66.356003,385.654419 
	C100.704208,382.671906 135.116577,380.611725 169.612350,381.585144 
	C189.403229,382.143585 209.165405,383.510498 228.910416,385.102081 
	C254.638947,387.175964 280.296204,389.948486 305.966431,392.590302 
	C326.504333,394.703949 347.030853,396.929169 367.578156,398.954620 
	C381.992554,400.375549 396.445801,401.311462 410.880127,402.481293 
	C436.431763,404.552124 462.058228,405.305054 487.660797,406.275696 
	C509.799042,407.114960 531.980896,406.207428 554.136353,406.574615 
	C576.633789,406.947388 599.097107,405.774750 621.563965,405.260468 
	C648.840820,404.636108 676.123108,403.517059 703.390381,402.355682 
	C731.827515,401.144470 760.276672,400.359863 788.711548,399.274719 
	C817.204773,398.187408 845.678955,398.422546 874.145020,398.705688 
	C894.921570,398.912323 915.717651,399.952057 936.490234,401.179260 
	C950.772461,402.022980 965.078003,402.578674 979.365356,403.465485 
	C994.816223,404.424530 1010.230103,405.852051 1025.678101,406.849060 
	C1040.626587,407.813843 1055.533569,409.351196 1070.468384,410.520874 
	C1073.947754,410.793365 1077.490723,410.802063 1080.660645,413.665710 
z"/>
<path fill="#00001E" opacity="1.000000" stroke="none" 
	d="
M1.341530,75.339272 
	C1.000000,51.342312 1.039744,27.684456 0.940029,4.027189 
	C0.929781,1.595971 1.398500,0.487400 3.974323,0.981570 
	C4.617080,1.104883 5.303615,1.000000 5.970029,1.000000 
	C363.667603,1.000000 721.365173,1.000000 1079.531372,1.000000 
	C1081.104858,9.220982 1080.262329,17.481035 1080.478149,25.720430 
	C1080.586548,29.854904 1080.531494,33.995415 1080.368164,38.608246 
	C1077.932983,42.065136 1074.559326,41.427074 1071.487549,41.441441 
	C1050.492798,41.539623 1029.476074,40.881317 1008.507874,41.636578 
	C980.025574,42.662487 951.531555,41.734192 923.080688,42.730492 
	C906.421814,43.313858 889.771729,42.928329 873.137512,43.558872 
	C845.029541,44.624340 816.899963,45.261692 788.814636,46.719177 
	C761.395447,48.142086 733.966614,49.631935 706.588257,51.700974 
	C674.555847,54.121723 642.520569,56.527798 610.504150,59.193901 
	C574.665894,62.178272 538.881409,65.734612 503.042999,68.705536 
	C474.344574,71.084572 445.638336,73.379967 416.907410,75.251534 
	C400.143280,76.343559 383.324402,76.872879 366.537140,77.661736 
	C304.428741,80.580284 242.282516,80.022316 180.178345,79.202332 
	C123.701118,78.456650 67.233566,79.011742 10.765113,78.454185 
	C7.507419,78.422012 3.976579,78.993988 1.341530,75.339272 
z"/>
<path fill="#105489" opacity="1.000000" stroke="none" 
	d="
M1.000000,75.468651 
	C4.265252,75.907425 7.618001,75.646896 10.935683,75.662758 
	C57.416752,75.884888 103.900757,75.821938 150.378448,76.335396 
	C202.023315,76.905952 253.669434,77.338638 305.311432,76.833191 
	C357.954651,76.317932 410.499481,73.456314 462.996826,69.357895 
	C521.438965,64.795372 579.745544,58.707634 638.191162,54.242874 
	C701.129089,49.434937 764.089722,44.983616 827.190613,42.759975 
	C874.475403,41.093693 921.770386,40.164078 969.079468,39.858524 
	C1005.728699,39.621822 1042.378784,39.505089 1079.491211,39.275864 
	C1080.115967,39.492725 1080.277832,39.768749 1080.466797,40.524170 
	C1080.494141,56.703514 1080.523682,72.403458 1080.391357,88.572021 
	C1078.961060,91.638107 1076.439209,91.363922 1074.167603,91.413353 
	C1049.372559,91.952850 1024.626465,93.629280 999.851013,94.633026 
	C972.586731,95.737595 945.317322,96.997101 918.088196,98.711441 
	C889.028076,100.541069 859.943665,101.992500 830.901489,104.214127 
	C812.330750,105.634712 793.702026,106.570221 775.091614,107.598557 
	C751.826050,108.884117 728.545227,109.724953 705.273804,110.774612 
	C683.943420,111.736732 662.616211,111.934509 641.341064,111.261383 
	C606.409058,110.156151 571.571228,107.300354 536.841187,103.053635 
	C502.633484,98.870789 468.416138,94.671257 434.075226,91.673973 
	C406.012085,89.224609 377.851044,88.428719 349.740082,89.708046 
	C317.974792,91.153671 286.362152,94.732216 254.802353,98.748779 
	C227.721100,102.195366 200.607788,105.377441 173.388519,107.724411 
	C137.472076,110.821297 101.568581,109.523537 65.678200,108.252869 
	C46.568047,107.576302 27.523499,105.199753 8.468273,103.376251 
	C5.951185,103.135376 3.524240,102.605339 1.335562,100.333969 
	C1.000000,91.979103 1.000000,83.958199 1.000000,75.468651 
z"/>
<path fill="#146AA8" opacity="1.000000" stroke="none" 
	d="
M1.343525,342.335815 
	C1.000000,330.979095 1.000000,319.958221 1.000000,308.468658 
	C2.578336,305.881012 4.875698,305.544983 7.258127,305.587128 
	C27.729988,305.949066 48.202435,306.308380 68.658676,307.237427 
	C70.988785,307.343262 73.315559,307.500977 75.649261,307.505554 
	C107.132828,307.567535 138.623047,307.824280 170.084961,306.437317 
	C198.518585,305.183899 226.942337,303.694275 255.370544,302.315155 
	C275.651520,301.331268 295.927216,300.275665 316.213165,299.363556 
	C355.027283,297.618378 393.846252,298.531250 432.652008,298.759216 
	C450.247925,298.862549 467.908203,299.858276 485.508942,301.215240 
	C493.962097,301.866943 502.468445,302.159485 510.946350,302.409576 
	C539.401001,303.248840 567.821838,304.868073 596.275391,305.795807 
	C631.601379,306.947693 666.912292,306.590454 702.216492,306.251282 
	C725.340454,306.029175 748.482483,305.170685 771.606995,304.396027 
	C797.735168,303.520782 823.878174,303.188171 849.994141,302.278076 
	C891.481628,300.832367 932.962585,301.467010 974.432251,301.812531 
	C991.398621,301.953888 1008.447571,301.483429 1025.363647,302.722473 
	C1041.667969,303.916626 1058.031616,302.359955 1074.268677,304.515076 
	C1076.383911,304.795837 1078.665649,304.455200 1080.651611,306.656860 
	C1081.000000,313.021149 1081.000000,319.042297 1081.000000,325.531738 
	C1079.666748,327.721039 1077.840820,328.308258 1075.741699,328.377991 
	C1060.935791,328.869873 1046.149902,329.806702 1031.358032,330.566071 
	C1013.077454,331.504578 994.779358,331.983948 976.503601,333.180054 
	C961.898193,334.135925 947.252075,334.743286 932.631775,335.573975 
	C912.529114,336.716156 892.409363,337.581085 872.329102,339.174469 
	C860.055237,340.148438 847.743591,340.682068 835.451416,341.459045 
	C819.004150,342.498627 802.578308,343.810669 786.149963,345.100311 
	C770.883850,346.298737 755.608032,347.370728 740.333618,348.457764 
	C721.574585,349.792816 702.804932,350.978790 684.039185,352.208649 
	C670.590210,353.090027 657.119141,353.735596 643.656250,354.392120 
	C584.899048,357.257172 526.088257,356.762695 467.296753,356.316650 
	C446.354828,356.157776 425.379364,355.151245 404.452728,353.716766 
	C396.318085,353.159180 388.154480,353.047791 380.008545,352.679077 
	C351.241882,351.376892 322.523560,349.327057 293.777588,347.746094 
	C273.670166,346.640198 253.558487,345.507965 233.458878,344.316895 
	C185.042877,341.447968 136.587677,340.867279 88.134766,341.668671 
	C61.182644,342.114471 34.199921,342.409271 7.268716,343.989380 
	C5.270416,344.106628 3.238657,344.421295 1.343525,342.335815 
z"/>
<path fill="#105489" opacity="1.000000" stroke="none" 
	d="
M1081.000000,413.531372 
	C1049.121338,411.428192 1017.265564,408.515137 985.357422,406.386139 
	C956.768799,404.478638 928.127930,403.314484 899.500488,402.037720 
	C857.353027,400.157990 815.188965,400.711182 773.047058,402.082550 
	C723.920105,403.681213 674.817627,406.042572 625.689087,407.580475 
	C577.219543,409.097778 528.737793,409.860199 480.235657,408.362762 
	C447.417358,407.349518 414.641052,405.690521 381.947327,402.816528 
	C351.253998,400.118439 320.617188,396.759552 289.973022,393.525360 
	C237.432114,387.980194 184.863144,382.802277 131.929901,384.193695 
	C105.613152,384.885498 79.367744,386.991364 53.156540,389.474915 
	C36.077610,391.093170 18.981064,392.525513 1.446204,394.020569 
	C1.000000,381.979095 1.000000,369.958221 1.000000,357.468658 
	C4.693282,353.135010 9.809799,353.916779 14.190057,353.819580 
	C24.350754,353.594208 34.473057,352.768829 44.622585,352.433319 
	C87.403381,351.019196 130.188843,350.023193 172.992371,350.550415 
	C202.289902,350.911285 231.592178,351.586426 260.863281,352.729401 
	C285.963531,353.709534 311.068268,355.026978 336.140350,356.658508 
	C364.538666,358.506470 392.907410,360.810120 421.266876,363.231293 
	C447.636322,365.482605 474.021515,367.577240 500.404419,369.681335 
	C528.278503,371.904358 556.169067,373.850494 584.089600,375.229279 
	C594.387634,375.737823 604.705933,376.192993 615.018433,376.577728 
	C642.991394,377.621429 670.974243,377.832733 698.948914,377.414825 
	C721.572754,377.076874 744.179932,375.870728 766.788757,374.775482 
	C794.244751,373.445404 821.590149,370.934479 848.921875,368.290497 
	C883.404175,364.954834 917.740967,360.358154 951.988159,355.089111 
	C991.997253,348.933624 1031.893799,342.110046 1071.796631,335.317841 
	C1074.691040,334.825165 1077.743286,333.873352 1080.664551,336.670105 
	C1081.000000,362.354218 1081.000000,387.708466 1081.000000,413.531372 
z"/>
<path fill="#1576B8" opacity="1.000000" stroke="none" 
	d="
M1081.000000,306.531342 
	C1048.390991,305.896637 1015.757324,305.635651 983.153137,304.715057 
	C942.334229,303.562592 901.531128,303.970886 860.733398,304.238647 
	C835.624329,304.403412 810.489258,305.303741 785.377991,306.135864 
	C761.092346,306.940643 736.788330,307.234894 712.522522,308.211609 
	C676.538452,309.660034 640.566895,308.963501 604.599609,308.813599 
	C579.498535,308.708984 554.401978,307.004456 529.307739,305.915222 
	C508.539124,305.013733 487.749664,304.355682 467.017517,302.903290 
	C424.423096,299.919312 381.783478,301.008148 339.165100,301.137787 
	C311.897034,301.220703 284.654388,303.026794 257.431610,304.824402 
	C242.165298,305.832428 226.860947,306.254974 211.576981,307.007080 
	C168.341614,309.134552 125.089478,310.687531 81.794617,309.957123 
	C55.172050,309.507996 28.556177,308.662262 1.468648,307.997314 
	C1.000000,297.312439 1.000000,286.624878 1.000000,275.468658 
	C50.978455,275.001984 100.962082,274.575256 150.933289,275.178009 
	C177.875641,275.502991 204.830276,276.367065 231.769333,277.181061 
	C263.046783,278.126129 294.312317,279.141144 325.606964,279.011627 
	C333.262238,278.979950 340.956635,279.917145 348.530579,279.748993 
	C373.463318,279.195312 398.407562,278.793579 423.325623,277.296692 
	C437.592590,276.439636 451.894470,276.000824 466.164642,275.017426 
	C485.401184,273.691742 504.640228,272.395294 523.885803,271.210419 
	C537.660400,270.362427 551.463074,269.933990 565.226501,268.946655 
	C636.578674,263.828125 708.045044,265.723267 779.440918,266.348694 
	C834.400269,266.830078 889.357300,266.879272 944.310059,266.767334 
	C964.764343,266.725677 985.281006,266.793915 1005.709717,265.747437 
	C1020.038757,265.013428 1034.349243,265.658173 1048.634277,264.900116 
	C1059.111816,264.344116 1069.573242,263.856140 1080.531372,264.000183 
	C1081.000000,278.020905 1081.000000,292.041779 1081.000000,306.531342 
z"/>
<path fill="#1576B8" opacity="1.000000" stroke="none" 
	d="
M1081.000000,188.531342 
	C1063.588135,190.238129 1046.176758,191.483963 1028.764160,192.711578 
	C1017.983032,193.471680 1007.210327,194.576813 996.415771,194.875229 
	C969.808411,195.610809 943.253601,197.425064 916.644165,198.269150 
	C880.993225,199.399994 845.360840,199.020416 809.731873,198.819260 
	C781.975281,198.662521 754.210327,197.364670 726.504883,195.185104 
	C713.080566,194.129013 699.600159,193.807632 686.156494,192.971085 
	C667.572998,191.814728 649.001465,190.467438 630.422424,189.237991 
	C618.641846,188.458420 606.859497,187.700653 595.073425,187.010513 
	C572.666626,185.698441 550.257019,184.435822 527.847778,183.165329 
	C518.879150,182.656845 509.889832,182.566666 500.917511,182.215057 
	C458.474335,180.551804 415.987915,180.448380 373.528900,181.191574 
	C346.108032,181.671570 318.699432,183.470001 291.313110,185.134827 
	C263.600037,186.819519 235.909912,188.925018 208.230667,191.111465 
	C183.862442,193.036392 159.474854,194.604797 135.080872,196.145233 
	C111.666283,197.623795 88.237511,198.382004 64.796463,199.206009 
	C43.843796,199.942520 22.863825,199.632309 1.467199,200.999146 
	C1.000000,189.979111 1.000000,178.958206 1.000000,167.468658 
	C2.579002,164.880402 4.880767,164.519058 7.259806,164.593689 
	C20.430008,165.006973 33.553246,163.811172 46.701633,163.480484 
	C92.153282,162.337341 137.620850,162.066956 183.070465,161.207214 
	C230.222473,160.315292 277.363800,161.337326 324.495819,160.414688 
	C354.123810,159.834717 383.760193,159.333466 413.376495,158.341187 
	C438.159119,157.510880 462.933685,156.350449 487.713379,155.369232 
	C514.157654,154.322083 540.603638,153.343750 567.048157,152.327026 
	C589.010437,151.482651 610.983459,151.091614 632.932617,150.262787 
	C653.928223,149.469940 674.900757,149.875320 695.879333,149.496490 
	C821.165771,147.234009 946.463013,149.121277 1071.753906,148.558975 
	C1074.664062,148.545914 1077.828247,147.899078 1080.648193,150.654053 
	C1081.000000,163.354233 1081.000000,175.708450 1081.000000,188.531342 
z"/>
<path fill="#146AA8" opacity="1.000000" stroke="none" 
	d="
M1081.000000,150.531342 
	C959.713623,151.001770 838.426453,150.771957 717.141663,151.203888 
	C693.349426,151.288605 669.517273,151.322922 645.736572,152.180649 
	C623.120667,152.996384 600.484558,152.948608 577.886536,154.061646 
	C551.303650,155.370972 524.704834,156.152100 498.111755,157.141525 
	C473.184204,158.069016 448.266754,159.264206 423.334198,160.163177 
	C397.220795,161.104721 371.094482,161.337296 344.992554,162.191284 
	C296.524841,163.776993 248.049042,161.865921 199.611557,163.221420 
	C171.463455,164.009125 143.321915,163.208878 115.203911,164.129944 
	C89.590340,164.968994 63.958363,165.160690 38.365501,166.239380 
	C26.212032,166.751633 14.078076,166.717377 1.468650,167.003052 
	C1.000000,148.645767 1.000000,130.291550 1.000000,111.468658 
	C3.154734,108.180023 6.304817,108.533028 9.256173,108.553261 
	C33.937130,108.722443 58.618649,108.132973 83.301300,108.944199 
	C98.821266,109.454285 114.366966,109.289001 129.888031,109.647766 
	C145.847305,110.016663 161.791870,111.305046 177.742996,112.139893 
	C194.041000,112.992897 210.290558,114.403816 226.559830,115.573776 
	C248.310211,117.137909 270.036224,119.028778 291.758026,120.962944 
	C312.321808,122.794006 332.856689,124.930298 353.437500,126.588280 
	C371.688538,128.058578 389.913818,129.874435 408.180603,131.131409 
	C425.284119,132.308350 442.401917,133.378464 459.490082,134.682098 
	C503.896576,138.069763 548.361267,137.741745 592.819458,137.391449 
	C613.778687,137.226318 634.704102,135.477554 655.618469,133.848679 
	C678.365845,132.077072 701.061462,129.825851 723.749390,127.472885 
	C753.067932,124.432266 782.339966,120.948738 811.664307,117.971329 
	C832.034729,115.903053 852.424438,114.010147 872.842529,112.409485 
	C889.270325,111.121628 905.701782,109.820152 922.143494,108.823883 
	C936.259949,107.968506 950.398743,107.370224 964.519409,106.510475 
	C985.284607,105.246170 1006.081421,104.502365 1026.862427,103.837166 
	C1042.496216,103.336716 1058.132935,102.262215 1073.792358,102.567307 
	C1076.082275,102.611923 1078.527832,102.343414 1080.661621,104.666695 
	C1081.000000,120.020897 1081.000000,135.041794 1081.000000,150.531342 
z"/>
<path fill="#125F98" opacity="1.000000" stroke="none" 
	d="
M1081.000000,104.533142 
	C1054.880859,105.683464 1028.755249,106.185051 1002.644714,107.110039 
	C983.035400,107.804703 963.430603,108.815704 943.850159,110.090202 
	C909.669739,112.315010 875.492554,114.525818 841.378052,117.770592 
	C806.593506,121.079086 771.896301,125.135330 737.147217,128.727737 
	C710.844360,131.446976 684.496460,133.785583 658.166626,136.248047 
	C608.642456,140.879776 559.031677,140.384796 509.439545,139.743423 
	C487.870300,139.464478 466.245422,138.133301 444.696625,136.216995 
	C428.633240,134.788498 412.494812,134.221817 396.417328,132.929184 
	C375.200409,131.223373 354.011261,129.172806 332.808563,127.289070 
	C312.762909,125.508141 292.717468,123.724312 272.667633,121.991791 
	C253.947403,120.374176 235.238434,118.564545 216.492157,117.331665 
	C203.881775,116.502342 191.277359,115.530136 178.656250,114.799187 
	C152.901550,113.307602 127.139153,112.590538 101.363983,111.727715 
	C68.207565,110.617798 35.074432,111.553787 1.468657,110.999298 
	C1.000000,107.638710 1.000000,104.277428 1.000000,100.458069 
	C17.389935,101.569405 33.767056,103.292793 50.174011,104.657600 
	C62.435707,105.677574 74.727325,106.643616 87.020966,106.901398 
	C105.010124,107.278595 123.014130,107.125221 141.009796,106.967903 
	C160.828690,106.794640 180.538498,104.801727 200.208588,102.604004 
	C227.495239,99.555275 254.728897,96.033485 282.013031,92.960815 
	C309.953125,89.814262 337.919983,87.038193 366.096191,86.897293 
	C386.383972,86.795845 406.614899,87.366600 426.868134,88.701637 
	C457.443817,90.717117 487.755951,95.072784 518.210205,98.139809 
	C541.052673,100.440277 563.830261,103.384254 586.670532,105.709190 
	C597.913696,106.853653 609.231445,107.278931 620.519104,107.969109 
	C642.144348,109.291374 663.807068,109.397148 685.441589,108.892624 
	C714.204041,108.221870 742.963318,107.214569 771.678284,105.163116 
	C790.421021,103.824104 809.209839,103.143631 827.964294,101.952209 
	C845.220581,100.855965 862.443176,99.156609 879.709534,98.315636 
	C892.837036,97.676262 905.944214,96.801353 919.062073,96.054512 
	C944.962097,94.579948 970.876282,93.345627 996.789490,92.113586 
	C1013.571777,91.315666 1030.359253,90.595467 1047.150879,90.036453 
	C1057.793457,89.682159 1068.407959,88.437508 1079.549072,88.968826 
	C1080.190186,88.756310 1080.361572,88.548256 1080.766357,88.670097 
	C1081.000000,94.022095 1081.000000,99.044182 1081.000000,104.533142 
z"/>
<path fill="#125F98" opacity="1.000000" stroke="none" 
	d="
M1081.000000,336.541931 
	C1066.968628,337.734314 1053.338501,341.124146 1039.567505,343.482727 
	C999.345154,350.371613 959.078979,357.009399 918.663818,362.605530 
	C890.488037,366.506958 862.217712,369.762817 833.849670,372.232178 
	C805.173218,374.728363 776.489929,376.676117 747.745544,378.218201 
	C711.287048,380.174133 674.829468,380.289276 638.370117,379.850250 
	C613.427063,379.549957 588.473999,378.375946 563.571838,376.839050 
	C534.196533,375.026062 504.870758,372.408234 475.524658,370.124451 
	C453.469940,368.408081 431.416046,366.681763 409.363708,364.935089 
	C384.994141,363.004944 360.639526,360.863129 336.253784,359.167511 
	C320.990173,358.106140 305.670166,357.879303 290.394714,356.958984 
	C258.818939,355.056580 227.200745,354.685211 195.597641,353.702606 
	C164.769272,352.744080 133.957886,352.863007 103.159302,353.257751 
	C81.544228,353.534790 59.906559,354.272858 38.287636,355.052307 
	C26.157118,355.489716 14.041382,356.337158 1.459493,356.999939 
	C1.000000,352.310760 1.000000,347.621490 1.000000,342.466125 
	C24.421162,340.432922 47.903416,340.671295 71.332115,339.759796 
	C104.646027,338.463745 137.955383,338.674438 171.230713,339.287842 
	C197.799225,339.777618 224.412308,340.685425 250.955276,342.810394 
	C270.505798,344.375610 290.137482,344.904327 309.723999,346.048737 
	C336.110291,347.590424 362.485352,349.324738 388.870972,350.878418 
	C396.671875,351.337738 404.484161,351.268799 412.304474,351.812042 
	C425.570770,352.733612 438.917664,352.418060 452.210144,353.052887 
	C495.828979,355.136139 539.473694,354.099579 583.092468,353.764526 
	C611.997803,353.542511 640.937317,352.375061 669.808167,350.171326 
	C688.537781,348.741699 707.333496,348.200104 726.077942,346.938385 
	C746.643127,345.554108 767.178955,343.738190 787.736084,342.226288 
	C803.653625,341.055634 819.585632,340.081238 835.508972,338.987427 
	C853.585083,337.745728 871.653687,336.391418 889.734985,335.231506 
	C903.175171,334.369354 916.631104,333.754730 930.078552,333.001801 
	C952.818115,331.728607 975.557251,330.446686 998.294861,329.140167 
	C1006.930176,328.643982 1015.569458,328.849487 1024.228760,328.253326 
	C1042.804077,326.974548 1061.447754,326.688080 1080.531738,325.997650 
	C1081.000000,329.361298 1081.000000,332.722565 1081.000000,336.541931 
z"/>
<path fill="#365E84" opacity="1.000000" stroke="none" 
	d="
M1081.000000,88.531342 
	C1081.000000,89.000000 1080.509033,88.989204 1080.263916,88.976784 
	C1080.066040,72.900536 1080.113159,56.836712 1080.210693,40.295052 
	C1080.424194,39.686165 1080.587280,39.555107 1080.875244,39.712025 
	C1081.000000,56.020893 1081.000000,72.041786 1081.000000,88.531342 
z"/>
<path fill="#6A6B7C" opacity="1.000000" stroke="none" 
	d="
M1081.000000,39.531342 
	C1081.000000,40.000000 1080.636108,39.883541 1080.448608,39.850380 
	C1080.261108,39.817219 1080.129028,39.504887 1080.041504,39.360794 
	C1079.969360,26.790239 1079.984619,14.363777 1080.000000,1.468657 
	C1082.210571,1.057697 1080.923218,2.724518 1080.929565,3.461843 
	C1081.029419,15.328147 1081.000000,27.195539 1081.000000,39.531342 
z"/>
</svg>