<svg id="visual" viewBox="0 0 960 540" width="960" height="540" xmlns="http://www.w3.org/2000/svg" xmlns:xlink="http://www.w3.org/1999/xlink" version="1.1"><rect x="0" y="0" width="960" height="540" fill="#00001E"></rect><defs><linearGradient id="grad1_0" x1="43.8%" y1="0%" x2="100%" y2="100%"><stop offset="14.444444444444446%" stop-color="#1482c8" stop-opacity="1"></stop><stop offset="85.55555555555554%" stop-color="#1482c8" stop-opacity="1"></stop></linearGradient></defs><defs><linearGradient id="grad1_1" x1="43.8%" y1="0%" x2="100%" y2="100%"><stop offset="14.444444444444446%" stop-color="#1482c8" stop-opacity="1"></stop><stop offset="85.55555555555554%" stop-color="#205f9a" stop-opacity="1"></stop></linearGradient></defs><defs><linearGradient id="grad1_2" x1="43.8%" y1="0%" x2="100%" y2="100%"><stop offset="14.444444444444446%" stop-color="#1c3f6d" stop-opacity="1"></stop><stop offset="85.55555555555554%" stop-color="#205f9a" stop-opacity="1"></stop></linearGradient></defs><defs><linearGradient id="grad1_3" x1="43.8%" y1="0%" x2="100%" y2="100%"><stop offset="14.444444444444446%" stop-color="#1c3f6d" stop-opacity="1"></stop><stop offset="85.55555555555554%" stop-color="#112243" stop-opacity="1"></stop></linearGradient></defs><defs><linearGradient id="grad1_4" x1="43.8%" y1="0%" x2="100%" y2="100%"><stop offset="14.444444444444446%" stop-color="#00001e" stop-opacity="1"></stop><stop offset="85.55555555555554%" stop-color="#112243" stop-opacity="1"></stop></linearGradient></defs><defs><linearGradient id="grad2_0" x1="0%" y1="0%" x2="56.3%" y2="100%"><stop offset="14.444444444444446%" stop-color="#1482c8" stop-opacity="1"></stop><stop offset="85.55555555555554%" stop-color="#1482c8" stop-opacity="1"></stop></linearGradient></defs><defs><linearGradient id="grad2_1" x1="0%" y1="0%" x2="56.3%" y2="100%"><stop offset="14.444444444444446%" stop-color="#205f9a" stop-opacity="1"></stop><stop offset="85.55555555555554%" stop-color="#1482c8" stop-opacity="1"></stop></linearGradient></defs><defs><linearGradient id="grad2_2" x1="0%" y1="0%" x2="56.3%" y2="100%"><stop offset="14.444444444444446%" stop-color="#205f9a" stop-opacity="1"></stop><stop offset="85.55555555555554%" stop-color="#1c3f6d" stop-opacity="1"></stop></linearGradient></defs><defs><linearGradient id="grad2_3" x1="0%" y1="0%" x2="56.3%" y2="100%"><stop offset="14.444444444444446%" stop-color="#112243" stop-opacity="1"></stop><stop offset="85.55555555555554%" stop-color="#1c3f6d" stop-opacity="1"></stop></linearGradient></defs><defs><linearGradient id="grad2_4" x1="0%" y1="0%" x2="56.3%" y2="100%"><stop offset="14.444444444444446%" stop-color="#112243" stop-opacity="1"></stop><stop offset="85.55555555555554%" stop-color="#00001e" stop-opacity="1"></stop></linearGradient></defs><g transform="translate(960, 0)"><path d="M0 459C-30.2 433.1 -60.4 407.1 -89.5 391.9C-118.5 376.7 -146.5 372.3 -174.4 362.2C-202.3 352.1 -230.2 336.4 -253.8 318.2C-277.3 300 -296.6 279.3 -327.6 261.2C-358.6 243.2 -401.2 227.7 -413.5 199.2C-425.9 170.6 -407.9 129 -410.4 93.7C-413 58.3 -436 29.2 -459 0L0 0Z" fill="#0a1530"></path><path d="M0 367.2C-24.1 346.4 -48.3 325.7 -71.6 313.5C-94.8 301.4 -117.2 297.8 -139.5 289.8C-161.9 281.7 -184.2 269.1 -203 254.6C-221.9 240 -237.3 223.5 -262.1 209C-286.8 194.5 -321 182.1 -330.8 159.3C-340.7 136.5 -326.3 103.2 -328.4 74.9C-330.4 46.7 -348.8 23.3 -367.2 0L0 0Z" fill="#173058"></path><path d="M0 275.4C-18.1 259.8 -36.2 244.3 -53.7 235.2C-71.1 226 -87.9 223.4 -104.7 217.3C-121.4 211.3 -138.1 201.8 -152.3 190.9C-166.4 180 -178 167.6 -196.6 156.7C-215.1 145.9 -240.7 136.6 -248.1 119.5C-255.5 102.4 -244.8 77.4 -246.3 56.2C-247.8 35 -261.6 17.5 -275.4 0L0 0Z" fill="#1f4f83"></path><path d="M0 183.6C-12.1 173.2 -24.1 162.8 -35.8 156.8C-47.4 150.7 -58.6 148.9 -69.8 144.9C-80.9 140.8 -92.1 134.6 -101.5 127.3C-110.9 120 -118.6 111.7 -131 104.5C-143.4 97.3 -160.5 91.1 -165.4 79.7C-170.4 68.2 -163.2 51.6 -164.2 37.5C-165.2 23.3 -174.4 11.7 -183.6 0L0 0Z" fill="#1d70b1"></path><path d="M0 91.8C-6 86.6 -12.1 81.4 -17.9 78.4C-23.7 75.3 -29.3 74.5 -34.9 72.4C-40.5 70.4 -46 67.3 -50.8 63.6C-55.5 60 -59.3 55.9 -65.5 52.2C-71.7 48.6 -80.2 45.5 -82.7 39.8C-85.2 34.1 -81.6 25.8 -82.1 18.7C-82.6 11.7 -87.2 5.8 -91.8 0L0 0Z" fill="#1482c8"></path></g><g transform="translate(0, 540)"><path d="M0 -459C33.2 -449 66.5 -439 97 -425.1C127.5 -411.1 155.3 -393.3 181.8 -377.5C208.2 -361.7 233.4 -348 268.1 -336.2C302.9 -324.4 347.2 -314.6 355.7 -283.7C364.2 -252.8 336.8 -200.7 351.4 -169.2C366 -137.8 422.6 -126.9 447.5 -102.1C472.4 -77.4 465.7 -38.7 459 0L0 0Z" fill="#0a1530"></path><path d="M0 -367.2C26.6 -359.2 53.2 -351.2 77.6 -340.1C102 -328.9 124.3 -314.6 145.4 -302C166.6 -289.4 186.7 -278.4 214.5 -269C242.3 -259.5 277.8 -251.7 284.6 -227C291.4 -202.2 269.4 -160.5 281.1 -135.4C292.8 -110.2 338 -101.5 358 -81.7C377.9 -61.9 372.6 -30.9 367.2 0L0 0Z" fill="#173058"></path><path d="M0 -275.4C19.9 -269.4 39.9 -263.4 58.2 -255C76.5 -246.7 93.2 -236 109.1 -226.5C124.9 -217 140 -208.8 160.9 -201.7C181.7 -194.6 208.3 -188.8 213.4 -170.2C218.5 -151.7 202.1 -120.4 210.8 -101.5C219.6 -82.7 253.5 -76.1 268.5 -61.3C283.5 -46.4 279.4 -23.2 275.4 0L0 0Z" fill="#1f4f83"></path><path d="M0 -183.6C13.3 -179.6 26.6 -175.6 38.8 -170C51 -164.5 62.1 -157.3 72.7 -151C83.3 -144.7 93.3 -139.2 107.2 -134.5C121.1 -129.8 138.9 -125.8 142.3 -113.5C145.7 -101.1 134.7 -80.3 140.6 -67.7C146.4 -55.1 169 -50.8 179 -40.9C189 -30.9 186.3 -15.5 183.6 0L0 0Z" fill="#1d70b1"></path><path d="M0 -91.8C6.6 -89.8 13.3 -87.8 19.4 -85C25.5 -82.2 31.1 -78.7 36.4 -75.5C41.6 -72.3 46.7 -69.6 53.6 -67.2C60.6 -64.9 69.4 -62.9 71.1 -56.7C72.8 -50.6 67.4 -40.1 70.3 -33.8C73.2 -27.6 84.5 -25.4 89.5 -20.4C94.5 -15.5 93.1 -7.7 91.8 0L0 0Z" fill="#1482c8"></path></g></svg>