<svg id="visual" viewBox="0 0 960 90" width="960" height="90" xmlns="http://www.w3.org/2000/svg" xmlns:xlink="http://www.w3.org/1999/xlink" version="1.1"><rect x="0" y="0" width="960" height="90" fill="#00001E"></rect><path d="M0 66L14.5 64.8C29 63.7 58 61.3 87.2 61.2C116.3 61 145.7 63 174.8 63.8C204 64.7 233 64.3 262 61.8C291 59.3 320 54.7 349 54.8C378 55 407 60 436.2 60.8C465.3 61.7 494.7 58.3 523.8 56.8C553 55.3 582 55.7 611 55.5C640 55.3 669 54.7 698 55.8C727 57 756 60 785.2 62.5C814.3 65 843.7 67 872.8 68C902 69 931 69 945.5 69L960 69L960 0L945.5 0C931 0 902 0 872.8 0C843.7 0 814.3 0 785.2 0C756 0 727 0 698 0C669 0 640 0 611 0C582 0 553 0 523.8 0C494.7 0 465.3 0 436.2 0C407 0 378 0 349 0C320 0 291 0 262 0C233 0 204 0 174.8 0C145.7 0 116.3 0 87.2 0C58 0 29 0 14.5 0L0 0Z" fill="#32c7c5"></path><path d="M0 37L14.5 39.5C29 42 58 47 87.2 50C116.3 53 145.7 54 174.8 53C204 52 233 49 262 46.8C291 44.7 320 43.3 349 43.3C378 43.3 407 44.7 436.2 46.7C465.3 48.7 494.7 51.3 523.8 50C553 48.7 582 43.3 611 44C640 44.7 669 51.3 698 51.7C727 52 756 46 785.2 44.2C814.3 42.3 843.7 44.7 872.8 46.5C902 48.3 931 49.7 945.5 50.3L960 51L960 0L945.5 0C931 0 902 0 872.8 0C843.7 0 814.3 0 785.2 0C756 0 727 0 698 0C669 0 640 0 611 0C582 0 553 0 523.8 0C494.7 0 465.3 0 436.2 0C407 0 378 0 349 0C320 0 291 0 262 0C233 0 204 0 174.8 0C145.7 0 116.3 0 87.2 0C58 0 29 0 14.5 0L0 0Z" fill="#00b8cd"></path><path d="M0 33L14.5 33.7C29 34.3 58 35.7 87.2 37.7C116.3 39.7 145.7 42.3 174.8 43.3C204 44.3 233 43.7 262 42.2C291 40.7 320 38.3 349 38C378 37.7 407 39.3 436.2 40.3C465.3 41.3 494.7 41.7 523.8 42.2C553 42.7 582 43.3 611 42.2C640 41 669 38 698 35.5C727 33 756 31 785.2 32.2C814.3 33.3 843.7 37.7 872.8 40.3C902 43 931 44 945.5 44.5L960 45L960 0L945.5 0C931 0 902 0 872.8 0C843.7 0 814.3 0 785.2 0C756 0 727 0 698 0C669 0 640 0 611 0C582 0 553 0 523.8 0C494.7 0 465.3 0 436.2 0C407 0 378 0 349 0C320 0 291 0 262 0C233 0 204 0 174.8 0C145.7 0 116.3 0 87.2 0C58 0 29 0 14.5 0L0 0Z" fill="#00a7d0"></path><path d="M0 26L14.5 25.7C29 25.3 58 24.7 87.2 25.2C116.3 25.7 145.7 27.3 174.8 26.8C204 26.3 233 23.7 262 23.7C291 23.7 320 26.3 349 27C378 27.7 407 26.3 436.2 24.8C465.3 23.3 494.7 21.7 523.8 21.5C553 21.3 582 22.7 611 23.2C640 23.7 669 23.3 698 24C727 24.7 756 26.3 785.2 27.2C814.3 28 843.7 28 872.8 28C902 28 931 28 945.5 28L960 28L960 0L945.5 0C931 0 902 0 872.8 0C843.7 0 814.3 0 785.2 0C756 0 727 0 698 0C669 0 640 0 611 0C582 0 553 0 523.8 0C494.7 0 465.3 0 436.2 0C407 0 378 0 349 0C320 0 291 0 262 0C233 0 204 0 174.8 0C145.7 0 116.3 0 87.2 0C58 0 29 0 14.5 0L0 0Z" fill="#0095ce"></path><path d="M0 10L14.5 10.3C29 10.7 58 11.3 87.2 11.2C116.3 11 145.7 10 174.8 11C204 12 233 15 262 15.7C291 16.3 320 14.7 349 14.2C378 13.7 407 14.3 436.2 13.7C465.3 13 494.7 11 523.8 10.2C553 9.3 582 9.7 611 11.3C640 13 669 16 698 16.8C727 17.7 756 16.3 785.2 14.5C814.3 12.7 843.7 10.3 872.8 10.2C902 10 931 12 945.5 13L960 14L960 0L945.5 0C931 0 902 0 872.8 0C843.7 0 814.3 0 785.2 0C756 0 727 0 698 0C669 0 640 0 611 0C582 0 553 0 523.8 0C494.7 0 465.3 0 436.2 0C407 0 378 0 349 0C320 0 291 0 262 0C233 0 204 0 174.8 0C145.7 0 116.3 0 87.2 0C58 0 29 0 14.5 0L0 0Z" fill="#1482c8"></path></svg>